HIERARCHY
ROOT Hips
{
	OFFSET 0.00000 0.00000 0.00000
	CHANNELS 6 Xposition Yposition Zposition Yrotation Zrotation Xrotation 
	JOINT Lumbar
	{
		OFFSET 0 0 0
		CHANNELS 3 Zrotation Xrotation Yrotation
		JOINT Neck
		{
			OFFSET 0.00 0.2701 0.00
			CHANNELS 3 Zrotation Xrotation Yrotation
			End Site
			{
				OFFSET 0.00 0.1379 0.00
			}
		}
		JOINT RightShoulder
		{
			OFFSET 0.0119 0.2289 0.1181
			CHANNELS 3 Zrotation Xrotation Yrotation
			JOINT RightElbow
			{
				OFFSET 0.00 -0.1475 0.00
				CHANNELS 2 Zrotation Yrotation
				JOINT RightWrist
				{
					OFFSET 0.00 -0.1605 0.00
					CHANNELS 2 Zrotation Xrotation
					End Site
					{
						OFFSET 0.0040 -0.1068 0.0006
					}
				}
			}
		}
		JOINT LeftShoulder
		{
			OFFSET 0.0119 0.2289 -0.1181
			CHANNELS 3 Zrotation Xrotation Yrotation
			JOINT LeftElbow
			{
				OFFSET 0.00 -0.1475 0.00
				CHANNELS 2 Zrotation Yrotation
				JOINT LeftWrist
				{
					OFFSET 0.00 -0.1605 0.00
					CHANNELS 2 Zrotation Xrotation
					End Site
					{
						OFFSET 0.0040 -0.1068 -0.0006
					}
				}
			}
		}
	}
	JOINT RightHip
	{
		OFFSET 0.0316 -0.0424 0.0458
		CHANNELS 3 Zrotation Xrotation Yrotation
		JOINT RightKnee
		{
			OFFSET 0.00 -0.2438 0.00
			CHANNELS 1 Zrotation
			JOINT RightAnkle
			{
				OFFSET 0.00 -0.2449 0.00
				CHANNELS 3 Zrotation Xrotation Yrotation
				End Site
				{
					OFFSET 0.1237 -0.0542 0.0051
				}
			}
		}
	}
	JOINT LeftHip
	{
		OFFSET 0.0316 -0.0424 -0.0458
		CHANNELS 3 Zrotation Xrotation Yrotation
		JOINT LeftKnee
		{
			OFFSET 0.00 -0.2438 0.00
			CHANNELS 1 Zrotation
			JOINT LeftAnkle
			{
				OFFSET 0.00 -0.2449 0.00
				CHANNELS 3 Zrotation Xrotation Yrotation
				End Site
				{
					OFFSET 0.1237 -0.0542 -0.0051
				}
			}
		}
	}
}
MOTION
Frames: 22
Frame Time: 0.02
0.0023 0.00132 0.00291 -13.98372 -20.92138 3.94078 42.65405 2.77162 -3.21333 -20.42592 -5.2304 -1.18613 -16.943 -9.90203 -18.94711 35.64619 162.5238 22.54268 14.27561 -29.2555 17.21479 -5.69069 47.35677 -100.40712 13.45904 -1.54388 33.45029 0.47184 -10.77886 -20.97279 -7.30177 -3.43105 -3.9169 38.2308 10.77484 7.52911 -26.69098 -9.24504 3.20843 3.93739
0.00435 0.00169 0.00176 -14.26781 -20.99776 3.87212 42.88971 2.7588 -3.42209 -20.19792 -5.03713 -1.18797 -16.9468 -10.03567 -17.8349 35.81778 155.32218 20.78724 12.97478 -29.09155 17.2786 -5.54107 47.60567 -100.40207 13.40024 -1.54527 33.31043 0.31546 -11.1276 -20.89344 -7.2853 -3.36972 -3.88837 38.01108 10.6186 7.43014 -26.63036 -9.21764 3.25328 3.95716
0.00639 0.00207 0.0006 -14.55135 -21.07417 3.80364 43.12499 2.74595 -3.63036 -19.97044 -4.84407 -1.1898 -16.95066 -10.16869 -16.72609 35.98852 148.14271 19.03719 11.67795 -28.92831 17.34193 -5.39125 47.85417 -100.40409 13.34374 -1.54782 33.17114 0.15934 -11.47521 -20.81436 -7.26888 -3.30853 -3.85992 37.79207 10.46267 7.33159 -26.56997 -9.19027 3.29802 3.97689
0.00843 0.00244 -0.00055 -14.83462 -21.15036 3.73519 43.36001 2.73315 -3.83849 -19.74312 -4.65135 -1.19163 -16.95444 -10.30187 -15.61729 36.15952 140.96327 17.28715 10.38113 -28.7649 17.40549 -5.24196 48.10238 -100.40071 13.28562 -1.54948 33.03174 0.00341 -11.82287 -20.73527 -7.25245 -3.24738 -3.83148 37.57304 10.3069 7.23295 -26.50955 -9.16293 3.34274 3.99661
0.01048 0.00281 -0.00171 -15.11831 -21.22638 3.66658 43.59521 2.72042 -4.04706 -19.51535 -4.45854 -1.19346 -16.9582 -10.43577 -14.50511 36.33151 133.76171 15.53173 9.0803 -28.6007 17.46969 -5.0932 48.3508 -100.38621 13.22401 -1.5493 32.89169 -0.15272 -12.1717 -20.65588 -7.23598 -3.1861 -3.80298 37.35328 10.15085 7.1338 -26.44885 -9.13558 3.38757 4.01637
0.01252 0.00318 -0.00286 -15.40152 -21.30361 3.59838 43.8306 2.70731 -4.25469 -19.2885 -4.26497 -1.1953 -16.9623 -10.56697 -13.40348 36.49963 126.62909 13.79308 7.79196 -28.43947 17.53119 -4.94123 48.59941 -100.42208 13.178 -1.55746 32.75399 -0.3088 -12.51671 -20.57742 -7.21967 -3.12511 -3.77462 37.13584 9.99516 7.03649 -26.38912 -9.10818 3.43213 4.03602
0.01456 0.00356 -0.00401 -15.68537 -21.3784 3.52944 44.06551 2.69497 -4.46394 -19.06008 -4.07319 -1.19712 -16.96558 -10.70337 -12.28182 36.67528 119.36602 12.02269 6.47999 -28.27248 17.59796 -4.79563 48.84751 -100.36045 13.10179 -1.54948 32.61181 -0.46477 -12.86897 -20.49725 -7.20304 -3.06361 -3.74601 36.91405 9.83899 6.93569 -26.32754 -9.0809 3.47716 4.05588
0.0166 0.00393 -0.00517 -15.96866 -21.45528 3.46113 44.30059 2.68194 -4.67179 -18.83305 -3.87969 -1.19896 -16.96982 -10.83512 -11.17867 36.8441 112.2225 10.28139 5.18969 -28.11074 17.66004 -4.64466 49.09581 -100.38162 13.05132 -1.5552 32.47355 -0.6209 -13.21467 -20.41855 -7.18672 -3.00257 -3.71763 36.6961 9.68316 6.83794 -26.26761 -9.05353 3.52178 4.07555
0.01864 0.0043 -0.00632 -16.25135 -21.53541 3.39377 44.53711 2.66794 -4.87768 -18.60779 -3.68418 -1.20082 -16.97446 -10.96063 -10.09752 37.00417 105.22507 8.57562 3.92582 -27.9556 17.71569 -4.48492 49.34563 -100.53347 13.04107 -1.58256 32.34092 -0.77714 -13.552 -20.34205 -7.1707 -2.94212 -3.68951 36.48345 9.52805 6.74456 -26.20992 -9.02596 3.56585 4.09496
0.02072 0.00468 -0.00747 -16.53772 -21.59894 3.3215 44.76909 2.65917 -5.0941 -18.37254 -3.50052 -1.20257 -16.97444 -11.12036 -8.88788 37.21337 97.38672 6.66531 2.50966 -27.76306 17.80623 -4.36901 49.59052 -100.0222 12.82576 -1.50014 32.17839 -0.93249 -13.93643 -20.25411 -7.15274 -2.87832 -3.65983 36.24213 9.3697 6.62796 -26.13999 -8.99926 3.61294 4.11578
0.0227 0.00504 -0.00864 -16.81612 -21.69614 3.25923 45.00817 2.63959 -5.28874 -18.15831 -3.29174 -1.20454 -16.98578 -11.20897 -7.95061 37.3197 91.32333 5.18673 1.41502 -27.64906 17.82451 -4.16492 49.8433 -100.85249 13.02602 -1.63979 32.07736 -1.08982 -14.22216 -20.18952 -7.139 -2.82159 -3.63347 36.06012 9.21763 6.55914 -26.09548 -8.9709 3.65373 4.13368
0.02442 0.00535 -0.00982 -17.07473 -21.89853 3.22778 45.28765 2.5884 -5.41962 -18.0025 -3.0145 -1.20717 -17.01602 -11.09193 -7.75714 37.13473 90.17122 4.90293 1.20937 -27.75541 17.63146 -3.68049 50.13795 -105.88565 14.52186 -2.47541 32.16055 -1.25194 -14.22807 -20.19615 -7.13596 -2.78437 -3.61624 36.05259 9.08766 6.63356 -26.12477 -8.9363 3.67631 4.14304
0.02605 0.00563 -0.01102 -17.32523 -22.13275 3.20579 45.5705 2.52674 -5.52933 -17.86768 -2.71217 -1.21001 -17.0599 -10.90557 -7.83761 36.84835 90.79439 5.05097 1.32538 -27.93953 17.36823 -3.11419 50.43622 -112.1766 16.40832 -3.51921 32.30323 -1.41612 -14.13596 -20.22503 -7.13734 -2.75426 -3.60235 36.10285 8.96325 6.75445 -26.1789 -8.90028 3.69268 4.14955
0.02772 0.00593 -0.01224 -17.57775 -22.34357 3.17724 45.83801 2.47114 -5.6514 -17.7227 -2.42073 -1.21273 -17.10557 -10.75759 -7.79535 36.61397 90.57786 4.99458 1.28967 -28.08517 17.14568 -2.61099 50.72031 -117.54221 18.01206 -4.40963 32.40777 -1.57987 -14.09537 -20.23887 -7.13725 -2.72078 -3.58688 36.11844 8.8329 6.84516 -26.21892 -8.86609 3.71255 4.15775
0.02941 0.00622 -0.01336 -17.83619 -22.59059 3.15813 46.16334 2.40997 -5.76209 -17.58018 -2.13046 -1.21556 -17.11769 -10.57981 -7.7471 36.35349 90.50156 4.97282 1.27766 -28.24506 16.88604 -2.00013 51.05959 -124.37379 20.0522 -5.54349 32.55677 -1.74169 -14.02762 -20.27301 -7.13481 -2.68774 -3.57164 36.16788 8.7163 6.9711 -26.27061 -8.82714 3.72971 4.16437
0.03103 0.00652 -0.01468 -18.08175 -22.77175 3.12177 46.36962 2.358 -5.8912 -17.43776 -1.83299 -1.21821 -17.20273 -10.44846 -7.77511 36.12452 90.55689 4.98226 1.29295 -28.39265 16.68681 -1.59184 51.28195 -128.48762 21.28667 -6.22603 32.63045 -1.90775 -13.99011 -20.27082 -7.13843 -2.65566 -3.55679 36.1627 8.57323 7.03861 -26.30427 -8.79744 3.75081 4.17348
0.0325 0.00683 -0.01657 -18.28214 -22.74583 3.03365 46.24049 2.33324 -6.07879 -17.28848 -1.51191 -1.22027 -17.48738 -10.45592 -7.95568 35.99779 90.51058 4.9623 1.30033 -28.49584 16.67405 -1.78272 51.20462 -124.45803 20.10598 -5.55516 32.45416 -2.08742 -14.0877 -20.15729 -7.15662 -2.62275 -3.54131 35.9736 8.34836 6.8989 -26.27857 -8.79651 3.78633 4.1914
0.0339 0.00715 -0.01867 -18.4722 -22.6556 2.92809 45.99206 2.31816 -6.28533 -17.13904 -1.18639 -1.22216 -17.84448 -10.51365 -8.20176 35.90826 90.54102 4.96057 1.32489 -28.58231 16.72423 -2.17661 51.00508 -117.70953 18.11789 -4.43306 32.20513 -2.27079 -14.21459 -20.00764 -7.18094 -2.59081 -3.52625 35.73096 8.09805 6.70474 -26.23448 -8.80447 3.82567 4.21173
0.03532 0.00746 -0.02068 -18.67435 -22.6065 2.83181 45.80264 2.29922 -6.48142 -16.99085 -0.86926 -1.2241 -18.16764 -10.55267 -8.41183 35.8078 90.55541 4.95679 1.3444 -28.67081 16.74376 -2.4646 50.84561 -112.42474 16.5624 -3.55468 32.0074 -2.4509 -14.30919 -19.87794 -7.20313 -2.55964 -3.51165 35.5254 7.86423 6.55868 -26.20117 -8.80638 3.86189 4.23014
0.03679 0.00777 -0.02266 -18.84423 -22.50905 2.7305 45.59494 2.27795 -6.68396 -16.83802 -0.52401 -1.22605 -18.49633 -10.57214 -8.65782 35.67789 90.55071 4.94165 1.36324 -28.78563 16.76878 -2.80731 50.75127 -106.22828 14.74615 -2.52148 31.73479 -2.63786 -14.47795 -19.73333 -7.22268 -2.5239 -3.49455 35.2685 7.60979 6.31751 -26.15866 -8.81643 3.90361 4.25185
0.03813 0.00808 -0.02476 -19.07995 -22.49563 2.63494 45.39465 2.26356 -6.87859 -16.69503 -0.23701 -1.22807 -18.82957 -10.64478 -8.84099 35.62033 90.58287 4.94903 1.38371 -28.84054 16.79911 -3.08533 50.49262 -101.25942 13.27262 -1.69951 31.60004 -2.81128 -14.50366 -19.61184 -7.24916 -2.49747 -3.48253 35.10447 7.39221 6.25857 -26.13043 -8.81204 3.93502 4.26742
0.03916 0.00839 -0.02715 -19.49191 -22.73828 2.56322 45.26326 2.26917 -7.04036 -16.57516 -0.10878 -1.22929 -19.1659 -10.85513 -8.83406 35.74651 90.68129 5.0131 1.40148 -28.73395 16.82164 -3.13558 49.80601 -100.41939 12.9719 -1.58213 31.86479 -2.94766 -14.10068 -19.557 -7.29313 -2.49944 -3.48594 35.21472 7.2826 6.73595 -26.14763 -8.76232 3.93547 4.26441
